Coordinates
version=1
nRows=12
nColumns=23
inDegrees=yes

Units are S.I. units (second, meters, Newtons, ...)
Angles are in degrees.

endheader
time	pelvis_tilt	pelvis_list	pelvis_rotation	pelvis_tx	pelvis_ty	pelvis_tz	hip_flexion_r	hip_adduction_r	hip_rotation_r	knee_angle_r	knee_angle_r_beta	ankle_angle_r	subtalar_angle_r	mtp_angle_r	hip_flexion_l	hip_adduction_l	hip_rotation_l	knee_angle_l	knee_angle_l_beta	ankle_angle_l	subtalar_angle_l	mtp_angle_l
    120.00000000	     -7.79635747	     -7.35554785	     -2.54433340	      0.05507993	      1.24917649	      0.23184375	     75.61840524	      0.44040383	     -2.37123779	     93.70939326	      1.63553745	      7.33548864	      0.00000000	      0.00000000	     38.13833026	    -11.45383878	      2.35916765	     63.46076103	      1.10759923	      0.69518283	      0.00000000	      0.00000000
    120.00888900	     -7.57431598	     -6.91017615	     -2.03499944	      0.05508998	      1.24919603	      0.23226733	     74.12121816	      0.09386992	     -2.15489576	     90.92601948	      1.58695842	      7.82447920	      0.00000000	      0.00000000	     39.02170753	    -10.79000236	      2.88558458	     66.88291732	      1.16732712	      1.57867802	      0.00000000	      0.00000000
    120.01777800	     -7.29234222	     -6.31712457	     -1.51570297	      0.05509711	      1.24917407	      0.23283190	     72.46077244	     -0.32613786	     -1.80572106	     88.02185009	      1.53627110	      7.80840863	      0.00000000	      0.00000000	     39.87344748	     -9.99210829	      3.30977295	     70.26473553	      1.22635098	      2.12413865	      0.00000000	      0.00000000
    120.02666700	     -6.99220504	     -5.82740000	     -0.96805114	      0.05525953	      1.24926738	      0.23321147	     70.57937930	     -0.80358952	     -1.68258178	     84.91555537	      1.48205603	      7.66226756	      0.00000000	      0.00000000	     40.76385617	     -9.24404060	      3.81092522	     73.66212076	      1.28564654	      2.89009637	      0.00000000	      0.00000000
    120.03555600	     -6.68617099	     -5.14726273	     -0.40629133	      0.05551507	      1.24925496	      0.23370136	     68.61443957	     -1.41480063	     -1.43151969	     81.80310317	      1.42773349	      7.45910415	      0.00000000	      0.00000000	     41.66804848	     -8.33360080	      4.13717477	     76.98932407	      1.34371719	      3.40448739	      0.00000000	      0.00000000
    120.04444400	     -6.39825962	     -4.45183018	      0.14111554	      0.05588219	      1.24929661	      0.23424040	     66.52966939	     -2.05718659	     -1.23219552	     78.57076842	      1.37131860	      7.13137844	      0.00000000	      0.00000000	     42.62884435	     -7.42594815	      4.40029390	     80.26103287	      1.40081928	      3.93189474	      0.00000000	      0.00000000
    120.05333300	     -6.13508292	     -3.66404111	      0.68288851	      0.05630834	      1.24929960	      0.23483617	     64.39414545	     -2.79216776	     -1.03544638	     75.30455338	      1.31431240	      6.69424524	      0.00000000	      0.00000000	     43.65138405	     -6.45169223	      4.54964394	     83.45608826	      1.45658352	      4.34111392	      0.00000000	      0.00000000
    120.06222200	     -5.93247700	     -2.83607769	      1.21951854	      0.05684828	      1.24932012	      0.23541728	     62.22847096	     -3.60619988	     -0.92010912	     71.98920848	      1.25644871	      6.09437801	      0.00000000	      0.00000000	     44.77952713	     -5.44116857	      4.63735370	     86.57171043	      1.51096139	      4.69814489	      0.00000000	      0.00000000
    120.07111100	     -5.83035933	     -1.91809809	      1.73117151	      0.05739242	      1.24934711	      0.23610295	     60.11187836	     -4.47245951	     -0.75829402	     68.62832722	      1.19779027	      5.43214349	      0.00000000	      0.00000000	     46.04222729	     -4.38883684	      4.58050079	     89.52358468	      1.56248131	      4.95272363	      0.00000000	      0.00000000
    120.08000000	     -5.71276541	     -1.09578255	      2.20000445	      0.05783885	      1.24926617	      0.23681732	     57.94191818	     -5.28009258	     -0.75764265	     65.27779320	      1.13931242	      4.42191108	      0.00000000	      0.00000000	     47.40181476	     -3.47170870	      4.51385357	     92.50420330	      1.61450292	      5.21109427	      0.00000000	      0.00000000
    120.08888900	     -5.72018148	     -0.23956113	      2.66018686	      0.05836404	      1.24923763	      0.23754220	     55.85265001	     -6.13890387	     -0.81085719	     61.91413079	      1.08060544	      3.28383176	      0.00000000	      0.00000000	     48.92371745	     -2.54295026	      4.36505279	     95.31758179	      1.66360564	      5.43508665	      0.00000000	      0.00000000
    120.09777800	     -5.80645593	      0.57480800	      3.08387153	      0.05886778	      1.24918868	      0.23827503	     53.82587524	     -6.96021137	     -0.94479573	     58.57894368	      1.02239544	      1.93135333	      0.00000000	      0.00000000	     50.59232179	     -1.69548157	      4.15998809	     98.02899810	      1.71092878	      5.65774010	      0.00000000	      0.00000000
